<?xml version="1.0" encoding="UTF-8" standalone="no"?>
<svg
   version="1.1"
   width="48"
   height="48"
   id="svg1"
   sodipodi:docname="hibernate.svg"
   inkscape:version="1.3.2 (091e20ef0f, 2023-11-25)"
   xmlns:inkscape="http://www.inkscape.org/namespaces/inkscape"
   xmlns:sodipodi="http://sodipodi.sourceforge.net/DTD/sodipodi-0.dtd"
   xmlns="http://www.w3.org/2000/svg"
   xmlns:svg="http://www.w3.org/2000/svg">
  <defs
     id="defs1" />
  <sodipodi:namedview
     id="namedview1"
     pagecolor="#ffffff"
     bordercolor="#000000"
     borderopacity="0.25"
     inkscape:showpageshadow="2"
     inkscape:pageopacity="0.0"
     inkscape:pagecheckerboard="0"
     inkscape:deskcolor="#d1d1d1"
     inkscape:zoom="5.3333333"
     inkscape:cx="23.90625"
     inkscape:cy="24"
     inkscape:window-width="1236"
     inkscape:window-height="627"
     inkscape:window-x="0"
     inkscape:window-y="0"
     inkscape:window-maximized="1"
     inkscape:current-layer="svg1" />
  <path
     d="M0 0 C0.99 0 1.98 0 3 0 C3 6.27 3 12.54 3 19 C3.66 19 4.32 19 5 19 C4.95875 17.88625 4.9175 16.7725 4.875 15.625 C5 12 5 12 7 10 C10.1328125 9.74121094 10.1328125 9.74121094 14.125 9.734375 C14.8277002 9.73246155 15.53040039 9.7305481 16.25439453 9.72857666 C17.74056354 9.72721525 19.22674445 9.73090868 20.71289062 9.73925781 C22.99115646 9.74995846 25.26863377 9.73936161 27.546875 9.7265625 C28.98958508 9.7278841 30.43229466 9.73044651 31.875 9.734375 C33.19242188 9.73663086 34.50984375 9.73888672 35.8671875 9.74121094 C39 10 39 10 41 12 C41.125 15.625 41.125 15.625 41 19 C41.99 19.33 42.98 19.66 44 20 C44 23.96 44 27.92 44 32 C43.01 32 42.02 32 41 32 C41 31.01 41 30.02 41 29 C28.46 29 15.92 29 3 29 C3 29.99 3 30.98 3 32 C2.01 32 1.02 32 0 32 C0 21.44 0 10.88 0 0 Z M16.99609375 14.328125 C15.74408165 16.10518866 15.74408165 16.10518866 16 19 C19.12498063 19.02895976 22.2499269 19.04678483 25.375 19.0625 C26.26445312 19.07087891 27.15390625 19.07925781 28.0703125 19.08789062 C28.92109375 19.09111328 29.771875 19.09433594 30.6484375 19.09765625 C31.82672119 19.10551147 31.82672119 19.10551147 33.02880859 19.11352539 C35.07772668 19.12573953 35.07772668 19.12573953 37 18 C37 16.68 37 15.36 37 14 C33.85489907 12.42744954 30.51234555 12.77427332 27.0625 12.75 C26.33353516 12.729375 25.60457031 12.70875 24.85351562 12.6875 C20.69473662 12.63893206 20.69473662 12.63893206 16.99609375 14.328125 Z M9 14 C9 14.99 9 15.98 9 17 C9.99 17 10.98 17 12 17 C12 16.01 12 15.02 12 14 C11.01 14 10.02 14 9 14 Z M3 22 C3 23.32 3 24.64 3 26 C15.54 26 28.08 26 41 26 C40.505 24.02 40.505 24.02 40 22 C27.79 22 15.58 22 3 22 Z "
     fill="#000000"
     transform="translate(2,7)"
     id="path1"
     style="fill:#00ce00;fill-opacity:1" />
</svg>
