<?xml version="1.0" encoding="UTF-8" standalone="no"?>
<svg
   viewBox="0 0 50 50"
   width="50px"
   height="50px"
   version="1.1"
   id="svg1"
   sodipodi:docname="restart.svg"
   inkscape:version="1.3.2 (091e20ef0f, 2023-11-25)"
   xmlns:inkscape="http://www.inkscape.org/namespaces/inkscape"
   xmlns:sodipodi="http://sodipodi.sourceforge.net/DTD/sodipodi-0.dtd"
   xmlns="http://www.w3.org/2000/svg"
   xmlns:svg="http://www.w3.org/2000/svg">
  <defs
     id="defs1" />
  <sodipodi:namedview
     id="namedview1"
     pagecolor="#ffffff"
     bordercolor="#000000"
     borderopacity="0.25"
     inkscape:showpageshadow="2"
     inkscape:pageopacity="0.0"
     inkscape:pagecheckerboard="0"
     inkscape:deskcolor="#d1d1d1"
     inkscape:zoom="5.12"
     inkscape:cx="24.902344"
     inkscape:cy="25"
     inkscape:window-width="1236"
     inkscape:window-height="627"
     inkscape:window-x="0"
     inkscape:window-y="0"
     inkscape:window-maximized="1"
     inkscape:current-layer="svg1" />
  <path
     d="M 25 2 A 2.0002 2.0002 0 1 0 25 6 C 35.517124 6 44 14.482876 44 25 C 44 35.517124 35.517124 44 25 44 C 14.482876 44 6 35.517124 6 25 C 6 19.524201 8.3080175 14.608106 12 11.144531 L 12 15 A 2.0002 2.0002 0 1 0 16 15 L 16 4 L 5 4 A 2.0002 2.0002 0 1 0 5 8 L 9.5253906 8 C 4.9067015 12.20948 2 18.272325 2 25 C 2 37.678876 12.321124 48 25 48 C 37.678876 48 48 37.678876 48 25 C 48 12.321124 37.678876 2 25 2 z"
     id="path1"
     style="fill:#00d8d8;fill-opacity:1" />
</svg>
