<?xml version="1.0" encoding="UTF-8" standalone="no"?>
<svg
   version="1.1"
   width="52"
   height="52"
   id="svg2"
   sodipodi:docname="shutdown.svg"
   inkscape:version="1.3.2 (091e20ef0f, 2023-11-25)"
   xmlns:inkscape="http://www.inkscape.org/namespaces/inkscape"
   xmlns:sodipodi="http://sodipodi.sourceforge.net/DTD/sodipodi-0.dtd"
   xmlns="http://www.w3.org/2000/svg"
   xmlns:svg="http://www.w3.org/2000/svg">
  <defs
     id="defs2" />
  <sodipodi:namedview
     id="namedview2"
     pagecolor="#ffffff"
     bordercolor="#000000"
     borderopacity="0.25"
     inkscape:showpageshadow="2"
     inkscape:pageopacity="0.0"
     inkscape:pagecheckerboard="0"
     inkscape:deskcolor="#d1d1d1"
     inkscape:zoom="4.9230769"
     inkscape:cx="25.898437"
     inkscape:cy="26"
     inkscape:window-width="1236"
     inkscape:window-height="633"
     inkscape:window-x="0"
     inkscape:window-y="0"
     inkscape:window-maximized="1"
     inkscape:current-layer="svg2" />
  <path
     d="M0 0 C0.67578125 1.75 0.67578125 1.75 1 4 C-0.14453125 6 -0.14453125 6 -1.8125 8 C-5.83290637 12.88942532 -7.47356355 16.2614617 -7.31640625 22.62109375 C-6.61618769 27.88569996 -4.30889357 31.75655111 -0.5 35.375 C5.06636377 38.99313645 9.35924178 39.96719752 16 39 C21.6489188 36.75392819 25.09069194 33.35312683 28 28 C29.84039111 22.47882667 29.69560903 17.87603089 27.1875 12.6875 C26.07399682 10.58421622 25.09535538 9.09168787 23.375 7.4375 C22 6 22 6 21.8125 3.3125 C21.9053125 2.1678125 21.9053125 2.1678125 22 1 C24.1875 0.1875 24.1875 0.1875 27 0 C29.625 2.1875 29.625 2.1875 32 5 C32.556875 5.639375 33.11375 6.27875 33.6875 6.9375 C37.62762064 13.12911815 37.75161321 19.86884054 37 27 C34.83975371 34.41610323 31.18630208 39.90602211 24.4375 43.75 C17.46291342 47.4666431 10.10170111 48.4717912 2.38671875 46.24609375 C-5.92539147 42.6837608 -10.12800681 38.08650886 -14 30 C-16.14369691 23.56890927 -15.92283748 16.29912078 -13.25 10.0625 C-9.96296149 3.63995313 -7.49195735 -0.19715677 0 0 Z "
     fill="#000000"
     transform="translate(15,5)"
     id="path1"
     style="fill:#ff0000" />
  <path
     d="M0 0 C3 0.125 3 0.125 4 1.125 C4.09971786 3.03958282 4.13080589 4.95782317 4.1328125 6.875 C4.13474609 8.62296875 4.13474609 8.62296875 4.13671875 10.40625 C4.13285156 11.6334375 4.12898438 12.860625 4.125 14.125 C4.12886719 15.3521875 4.13273437 16.579375 4.13671875 17.84375 C4.13542969 19.0090625 4.13414063 20.174375 4.1328125 21.375 C4.13168457 22.45265625 4.13055664 23.5303125 4.12939453 24.640625 C4 27.125 4 27.125 3 28.125 C0 28.25 0 28.25 -3 28.125 C-4.77449594 26.35050406 -4.13030072 23.77482739 -4.1328125 21.375 C-4.13410156 20.2096875 -4.13539062 19.044375 -4.13671875 17.84375 C-4.13285156 16.6165625 -4.12898438 15.389375 -4.125 14.125 C-4.12886719 12.8978125 -4.13273437 11.670625 -4.13671875 10.40625 C-4.13542969 9.2409375 -4.13414063 8.075625 -4.1328125 6.875 C-4.13168457 5.79734375 -4.13055664 4.7196875 -4.12939453 3.609375 C-3.93972678 -0.03224581 -3.70414701 0.15433946 0 0 Z "
     fill="#000000"
     transform="translate(26,-0.125)"
     id="path2"
     style="fill:#d40000" />
</svg>
